<?xml version="1.0" encoding="UTF-8"?>
<svg version="1.1" viewBox="0 0 24 24" xmlns="http://www.w3.org/2000/svg" xmlns:xlink="http://www.w3.org/1999/xlink">
    <!--Generated by IJSVG (https://github.com/iconjar/IJSVG)-->
    <path d="M23.612,0.225l-1.3988e-08,-1.099e-08c-0.325931,-0.256075 -0.772404,-0.295308 -1.138,-0.1l-21.647,11.521l-8.6025e-08,4.50001e-08c-0.75706,0.396021 -1.04974,1.33078 -0.653718,2.08784c0.168083,0.321318 0.443701,0.573379 0.778719,0.712161l3.254,1.38l-4.63422e-09,8.15249e-05c-1.26149e-08,0.0835447 0.0145604,0.16645 0.0430278,0.244995l2.5,6.746l-4.09392e-08,-1.09946e-07c0.266265,0.715082 0.95094,1.18762 1.71397,1.18292l3.67057e-08,-3.20568e-10c0.450564,-0.00393504 0.884132,-0.172525 1.219,-0.474c0.039,-0.035 2.79,-3.078 3.4,-3.754l-6.1417e-09,6.80456e-09c0.0713642,-0.0790663 0.185115,-0.103987 0.283,-0.062l3.157,1.339l4.78691e-08,2.02496e-08c0.4174,0.176569 0.890291,0.166747 1.3,-0.027l8.05456e-09,-3.80498e-09c0.406854,-0.192198 0.711139,-0.550416 0.835,-0.983l5.304,-18.739l2.18583e-08,-7.68147e-08c0.112673,-0.395955 -0.0252328,-0.820735 -0.349,-1.075Zm-17.774,15.821l9.692,-8.063l3.22278e-09,-3.26835e-09c0.0876367,-0.0888759 0.230728,-0.0898806 0.319604,-0.00224389c0.0061622,0.00607628 0.0119703,0.0125015 0.0173956,0.0192439l1.07728e-08,8.21507e-09c0.0961768,0.0733418 0.114688,0.210764 0.0413465,0.30694c-0.00679659,0.00891271 -0.0142674,0.0172905 -0.0223465,0.0250595l-7.238,8.855l-2.37806e-08,2.89391e-08c-0.0828443,0.100815 -0.137069,0.222044 -0.157,0.351l-0.633,3.95Z" fill="#1D1D1B"></path>
</svg>